{"title":"INNA Ft. Juan Magan - Un Momento [Music Video] 1080p [Sbyky]","uid":9226367,"size":118766389,"categoryP":"video","categoryS":"music_videos","magnet":"?xt=urn:btih:d159401dbd3e3638d8968fe590294a471c3e5f9b&amp;dn=INNA+Ft.+Juan+Magan+-+Un+Momento+%5BMusic+Video%5D+1080p+%5BSbyky%5D&amp;tr=udp%3A%2F%2Ftracker.openbittorrent.com%3A80&amp;tr=udp%3A%2F%2Fopen.demonii.com%3A1337&amp;tr=udp%3A%2F%2Ftracker.coppersurfer.tk%3A6969&amp;tr=udp%3A%2F%2Fexodus.desync.com%3A6969","seeders":1,"leechers":0,"uploader":"Sbyky","files":1,"time":1385012969,"description":"[IMG]http://cdn.piczend.com/images/VBkd4mtc/1384899095_unmomento.jpg[/IMG]\n\nGeneral\nComplete name                            : INNA Ft. Juan Magan - Un Momento [Music Video] 1080p [Sbyky].MP4\nFormat                                   : MPEG-4\nFormat profile                           : Base Media\nCodec ID                                 : isom\nFile size                                : 113 MiB\nDuration                                 : 3mn 49s\nOverall bit rate mode                    : Variable\nOverall bit rate                         : 4 145 Kbps\nEncoded date                             : UTC 2013-09-10 00:19:39\nTagged date                              : UTC 2013-09-10 00:19:39\n\nVideo\nID                                       : 1\nFormat                                   : AVC\nFormat/Info                              : Advanced Video Codec\nFormat profile                           : &lt;a class=&quot;__cf_email__&quot; href=&quot;/cdn-cgi/l/email-protection&quot; data-cfemail=&quot;a4eccdc3cce4e8908a94&quot;&gt;[email&amp;#160;protected]&lt;/a&gt;&lt;script cf-hash='f9e31' type=&quot;text/javascript&quot;&gt;\n/* &lt;![CDATA[ */!function(){try{var t=&quot;currentScript&quot;in document?document.currentScript:function(){for(var t=document.getElementsByTagName(&quot;script&quot;),e=t.length;e--;)if(t[e].getAttribute(&quot;cf-hash&quot;))return t[e]}();if(t&amp;&amp;t.previousSibling){var e,r,n,i,c=t.previousSibling,a=c.getAttribute(&quot;data-cfemail&quot;);if(a){for(e=&quot;&quot;,r=parseInt(a.substr(0,2),16),n=2;a.length-n;n+=2)i=parseInt(a.substr(n,2),16)^r,e+=String.fromCharCode(i);e=document.createTextNode(e),c.parentNode.replaceChild(e,c)}}}catch(u){}}();/* ]]&gt; */&lt;/script&gt;\nFormat settings, CABAC                   : Yes\nFormat settings, ReFrames                : 2 frames\nCodec ID                                 : avc1\nCodec ID/Info                            : Advanced Video Coding\nDuration                                 : 3mn 49s\nBit rate                                 : 3 892 Kbps\nWidth                                    : 1 920 pixels\nHeight                                   : 1 080 pixels\nDisplay aspect ratio                     : 16:9\nFrame rate mode                          : Constant\nFrame rate                               : 25.000 fps\nColor space                              : YUV\nChroma subsampling                       : 4:2:0\nBit depth                                : 8 bits\nScan type                                : Progressive\nBits/(Pixel*Frame)                       : 0.075\nStream size                              : 106 MiB (94%)\nEncoded date                             : UTC 2013-09-10 00:19:39\nTagged date                              : UTC 2013-09-10 00:19:39\n\nAudio\nID                                       : 2\nFormat                                   : AAC\nFormat/Info                              : Advanced Audio Codec\nFormat profile                           : LC\nCodec ID                                 : 40\nDuration                                 : 3mn 49s\nBit rate mode                            : Variable\nBit rate                                 : 254 Kbps\nChannel(s)                               : 2 channels\nChannel positions                        : Front: L R\nSampling rate                            : 44.1 KHz\nCompression mode                         : Lossy\nDelay relative to video                  : 40ms\nStream size                              : 6.93 MiB (6%)\nEncoded date                             : UTC 2013-09-10 00:18:46\nTagged date                              : UTC 2013-09-10 00:18:46\n\nShared By Sbyky\n[IMG]http://cdn.piczend.com/images/X3Ag13N3/1379453786_saythanks.gif[/IMG]\n[IMG]http://cdn.piczend.com/images/gGqhX2S8/1379453780_keepseeding.gif[/IMG]","torrent":{"xt":"urn:btih:d159401dbd3e3638d8968fe590294a471c3e5f9b","amp;dn":"INNA+Ft.+Juan+Magan+-+Un+Momento+%5BMusic+Video%5D+1080p+%5BSbyky%5D","amp;tr":["udp%3A%2F%2Ftracker.openbittorrent.com%3A80","udp%3A%2F%2Fopen.demonii.com%3A1337","udp%3A%2F%2Ftracker.coppersurfer.tk%3A6969","udp%3A%2F%2Fexodus.desync.com%3A6969"],"infoHash":"d159401dbd3e3638d8968fe590294a471c3e5f9b","infoHashBuffer":{"type":"Buffer","data":[209,89,64,29,189,62,54,56,216,150,143,229,144,41,74,71,28,62,95,155]},"announce":[],"urlList":[]}}